<svg width="64" height="64" viewBox="0 0 64 64" fill="none" xmlns="http://www.w3.org/2000/svg">
  <!-- Background -->
  <rect width="64" height="64" rx="12" fill="#667eea"/>

  <!-- Tunnel Rings -->
  <ellipse cx="32" cy="32" rx="24" ry="12" fill="#5568d3" opacity="0.4"/>
  <ellipse cx="32" cy="32" rx="20" ry="10" fill="#4854b8" opacity="0.5"/>
  <ellipse cx="32" cy="32" rx="16" ry="8" fill="#3a429d" opacity="0.6"/>
  <ellipse cx="32" cy="32" rx="12" ry="6" fill="#ffffff" opacity="0.2"/>

  <!-- Connection Points -->
  <circle cx="12" cy="32" r="4" fill="#ffffff" opacity="0.9"/>
  <circle cx="52" cy="32" r="4" fill="#ffffff" opacity="0.9"/>

  <!-- Connection Lines -->
  <line x1="16" y1="32" x2="26" y2="32" stroke="#ffffff" stroke-width="2" stroke-linecap="round" opacity="0.8"/>
  <line x1="38" y1="32" x2="48" y2="32" stroke="#ffffff" stroke-width="2" stroke-linecap="round" opacity="0.8"/>

  <!-- Center Glow -->
  <ellipse cx="32" cy="28" rx="8" ry="4" fill="#ffffff" opacity="0.3"/>

  <!-- Lock Icon (Small) -->
  <g transform="translate(28, 38)">
    <rect x="0" y="2" width="8" height="6" rx="1" fill="#ffffff" opacity="0.9"/>
    <path d="M 2 2 L 2 1 Q 2 0 4 0 Q 6 0 6 1 L 6 2" fill="none" stroke="#ffffff" stroke-width="1.2" opacity="0.9"/>
    <circle cx="4" cy="4.5" r="1" fill="#667eea"/>
  </g>
</svg>
